HIERARCHY
ROOT Hips
{
	OFFSET 0.000000 0.000000 0.000000
	CHANNELS 6 Xposition Yposition Zposition Zrotation Yrotation Xrotation 
	JOINT LHipJoint
	{
		OFFSET 0.000000 0.000000 0.000000
		CHANNELS 3 Zrotation Yrotation Xrotation
		JOINT LeftUpLeg
		{
			OFFSET 1.363060 -1.794630 0.839290
			CHANNELS 3 Zrotation Yrotation Xrotation
			JOINT LeftLeg
			{
				OFFSET 2.448110 -6.726130 0.000000
				CHANNELS 3 Zrotation Yrotation Xrotation
				JOINT LeftFoot
				{
					OFFSET 2.562200 -7.039590 0.000000
					CHANNELS 3 Zrotation Yrotation Xrotation
					JOINT LeftToeBase
					{
						OFFSET 0.157640 -0.433110 2.322550
						CHANNELS 3 Zrotation Yrotation Xrotation
						End Site
						{
							OFFSET 0.000000 0.000000 0.000000
						}
					}
				}
			}
		}
	}
	JOINT RHipJoint
	{
		OFFSET 0.000000 0.000000 0.000000
		CHANNELS 3 Zrotation Yrotation Xrotation
		JOINT RightUpLeg
		{
			OFFSET -1.305520 -1.794630 0.839290
			CHANNELS 3 Zrotation Yrotation Xrotation
			JOINT RightLeg
			{
				OFFSET -2.542530 -6.985550 0.000000
				CHANNELS 3 Zrotation Yrotation Xrotation
				JOINT RightFoot
				{
					OFFSET -2.568260 -7.056230 0.000000
					CHANNELS 3 Zrotation Yrotation Xrotation
					JOINT RightToeBase
					{
						OFFSET -0.164730 -0.452590 2.363150
						CHANNELS 3 Zrotation Yrotation Xrotation
						End Site
						{
							OFFSET 0.000000 0.000000 0.000000
						}
					}
				}
			}
		}
	}
	JOINT LowerBack
	{
		OFFSET 0.000000 0.000000 0.000000
		CHANNELS 3 Zrotation Yrotation Xrotation
		JOINT Spine
		{
			OFFSET 0.028270 2.035590 -0.193380
			CHANNELS 3 Zrotation Yrotation Xrotation
			JOINT Spine1
			{
				OFFSET 0.056720 2.048850 -0.042750
				CHANNELS 3 Zrotation Yrotation Xrotation
				JOINT Neck
				{
					OFFSET 0.000000 0.000000 0.000000
					CHANNELS 3 Zrotation Yrotation Xrotation
					JOINT Neck1
					{
						OFFSET -0.054170 1.746240 0.172020
						CHANNELS 3 Zrotation Yrotation Xrotation
						JOINT Head
						{
							OFFSET 0.104070 1.761360 -0.123970
							CHANNELS 3 Zrotation Yrotation Xrotation
							End Site
							{
								OFFSET 0.000000 0.000000 0.000000
							}
						}
					}
				}
				JOINT LeftShoulder
				{
					OFFSET 0.000000 0.000000 0.000000
					CHANNELS 3 Zrotation Yrotation Xrotation
					JOINT LeftArm
					{
						OFFSET 3.362410 1.200890 -0.311210
						CHANNELS 3 Zrotation Yrotation Xrotation
						JOINT LeftForeArm
						{
							OFFSET 4.983000 -0.000000 -0.000000
							CHANNELS 3 Zrotation Yrotation Xrotation
							JOINT LeftHand
							{
								OFFSET 3.483560 -0.000000 -0.000000
								CHANNELS 3 Zrotation Yrotation Xrotation
								JOINT LeftFingerBase
								{
									OFFSET 0.000000 0.000000 0.000000
									CHANNELS 3 Zrotation Yrotation Xrotation
									JOINT LeftHandIndex1
									{
										OFFSET 0.715260 -0.000000 -0.000000
										CHANNELS 3 Zrotation Yrotation Xrotation
										End Site
										{
											OFFSET 0.000000 0.000000 0.000000
										}
									}
								}
								JOINT LThumb
								{
									OFFSET 0.000000 0.000000 0.000000
									CHANNELS 3 Zrotation Yrotation Xrotation
									End Site
									{
										OFFSET 0.000000 0.000000 0.000000
									}
								}
							}
						}
					}
				}
				JOINT RightShoulder
				{
					OFFSET 0.000000 0.000000 0.000000
					CHANNELS 3 Zrotation Yrotation Xrotation
					JOINT RightArm
					{
						OFFSET -3.136600 1.374050 -0.404650
						CHANNELS 3 Zrotation Yrotation Xrotation
						JOINT RightForeArm
						{
							OFFSET -5.241900 -0.000000 -0.000000
							CHANNELS 3 Zrotation Yrotation Xrotation
							JOINT RightHand
							{
								OFFSET -3.444170 -0.000000 -0.000000
								CHANNELS 3 Zrotation Yrotation Xrotation
								JOINT RightFingerBase
								{
									OFFSET 0.000000 0.000000 0.000000
									CHANNELS 3 Zrotation Yrotation Xrotation
									JOINT RightHandIndex1
									{
										OFFSET -0.622530 -0.000000 -0.000000
										CHANNELS 3 Zrotation Yrotation Xrotation
										End Site
										{
											OFFSET 0.000000 0.000000 0.000000
										}
									}
								}
								JOINT RThumb
								{
									OFFSET 0.000000 0.000000 0.000000
									CHANNELS 3 Zrotation Yrotation Xrotation
									End Site
									{
										OFFSET 0.000000 0.000000 0.000000
									}
								}
							}
						}
					}
				}
			}
		}
	}
}
MOTION
Frames: 12
Frame Time: 0.008333
26.801351 15.682282 16.600150 69.649508 -85.773599 -56.611418 -5.399496 -15.652834 -13.184151 1.603962 10.919989 -8.900166 3.284599 26.231740 71.524959 -15.739744 -1.837801 6.399414 -7.003909 10.540450 9.624957 -6.484447 4.179858 -11.692749 37.553614 -10.467186 -34.876223 7.398754 -19.354005 37.695875 -4.183335 8.095229 1.742204 1.253041 13.188498 12.739530 11.306854 1.778215 26.961690 -1.446974 -2.977377 -8.860597 -7.812626 -1.680634 -0.750535 -4.927649 1.149892 -12.971824 -1.608008 0.978611 4.599250 12.702160 -7.510997 16.228136 14.805210 -6.493874 -1.119209 -86.964426 -23.549676 24.460364 164.120073 -69.047368 -162.525907 -24.292277 27.228094 -9.807030 0.000001 -0.000001 0.000002 0.000000 -0.000000 0.000000 0.000000 0.000000 -0.000000 -16.733776 0.432814 1.870766 82.288038 9.134711 19.845287 -108.025508 69.151755 -103.741533 17.138978 -11.985397 -3.314717 0.000000 0.000000 0.000000 -0.000000 0.000000 -0.000000 0.000000 0.000000 0.000000 
26.580330 15.567117 16.692492 73.298189 -85.288648 -60.604127 -5.310572 -15.684019 -13.287040 1.934463 10.103196 -10.000343 5.333114 26.401318 73.983485 -15.521121 -1.090893 6.689284 -6.564698 8.751541 10.121864 -6.715858 3.539813 -11.790076 38.601283 -11.223010 -34.570149 5.707694 -19.300872 39.898800 -5.716258 7.968660 -0.354789 0.080110 6.111333 5.448668 11.179690 1.563567 26.944106 -1.424879 -3.008694 -8.660381 -8.179811 -1.485489 -0.323903 -4.817241 1.212903 -13.148097 -1.641580 0.975559 4.718327 13.390141 -7.769304 15.433552 15.161220 -6.020515 -1.071320 -86.901059 -23.474479 23.666524 163.776001 -69.949584 -162.333753 -22.809729 26.542797 -9.172331 0.000001 -0.000001 0.000002 -0.000000 0.000000 0.000000 0.000000 0.000000 0.000000 -17.005353 0.463478 1.996995 82.306572 10.145316 19.456230 -107.360913 69.410665 -102.412586 17.241382 -11.359512 -3.135533 -0.000000 0.000000 0.000000 -0.000000 0.000000 0.000000 -0.000000 0.000000 0.000000 
26.361712 15.483634 16.777628 76.458530 -84.752937 -63.620003 -5.709108 -15.540207 -13.172062 2.558944 8.913267 -12.007671 6.206304 25.846852 75.901062 -14.603923 0.161005 6.201952 -6.081295 7.111595 10.247678 -6.657454 3.350452 -11.697398 38.622248 -10.877386 -34.352339 5.560581 -18.025138 41.416314 -6.335848 5.535671 -2.997605 -4.252336 9.699734 -2.970888 11.159454 1.432371 26.786871 -1.541228 -2.771414 -8.633387 -8.321708 -1.207502 -0.307576 -5.001361 1.132016 -12.964771 -1.834126 0.914849 4.774151 13.273726 -8.303388 14.984298 14.736296 -6.093174 -1.015390 -86.614542 -23.241943 22.399569 164.191256 -71.192316 -163.627831 -20.700894 26.723243 -8.716426 0.000001 -0.000001 0.000002 0.000000 0.000000 0.000000 -0.000000 -0.000000 -0.000000 -17.026922 0.461569 2.041143 82.067086 10.809084 19.036992 -106.192438 69.734407 -100.357421 16.345760 -10.548141 -2.815221 -0.000000 0.000000 0.000000 0.000000 0.000000 0.000000 -0.000000 0.000000 0.000000 
26.165766 15.380480 16.855255 79.672337 -84.206925 -67.021466 -5.761670 -15.347181 -13.375178 2.781611 8.348653 -13.628261 6.912851 24.724848 77.760591 -13.296402 1.519530 5.993692 -4.755557 3.913253 9.270714 -6.822702 3.454324 -11.763029 38.755242 -10.832992 -33.854858 4.556684 -17.795489 42.706824 -4.578348 4.049652 -5.263810 -6.670387 9.556610 -8.880742 10.871254 1.216102 27.021191 -1.548028 -2.501425 -8.538896 -8.809129 -0.822930 -0.086023 -4.692818 1.061944 -13.009400 -1.940749 0.787978 4.844194 13.146829 -8.474302 13.937491 15.187077 -5.998316 -0.914127 -86.570193 -23.443758 20.904350 165.292050 -72.461844 -165.680241 -19.486421 26.854800 -8.462472 0.000001 -0.000001 0.000002 -0.000000 0.000000 -0.000000 0.000000 0.000000 0.000000 -16.880316 0.242898 2.259296 81.881473 11.977886 18.252818 -105.405323 70.406149 -99.524368 15.864033 -10.517108 -2.765881 0.000000 0.000000 0.000000 0.000000 0.000000 0.000000 0.000000 0.000000 0.000000 
25.957958 15.282432 16.944294 81.281171 -83.774738 -68.817361 -6.148471 -15.104905 -13.399277 3.542753 7.251570 -15.118418 8.446106 24.118654 79.428742 -12.635754 2.349786 6.509507 -4.505977 4.528473 7.938080 -6.652627 3.085166 -11.799858 38.662785 -10.402387 -33.013437 3.598503 -17.668102 43.875189 -9.432903 3.143048 -7.338163 -7.663109 6.780366 -13.919795 10.997526 1.112362 27.148126 -1.623089 -2.271349 -8.435932 -8.734763 -0.591946 0.561864 -5.075208 1.085820 -13.419634 -2.099668 0.854920 4.943652 13.870455 -8.967327 13.473629 14.837681 -5.703440 -0.787564 -86.505638 -24.006342 19.580090 166.721106 -73.801512 -167.628476 -18.151294 26.561306 -8.039304 0.000001 -0.000001 0.000002 -0.000000 -0.000000 -0.000000 0.000000 0.000000 0.000000 -17.248846 -0.311182 2.529996 81.593384 13.516708 17.781756 -104.328844 70.927828 -98.065826 15.423217 -10.462415 -2.713578 -0.000000 0.000000 0.000000 -0.000000 0.000000 -0.000000 -0.000000 0.000000 0.000000 
25.761712 15.201051 17.040841 84.309134 -83.385618 -71.805356 -6.571002 -15.086045 -13.527965 4.378517 6.127910 -16.714216 8.738865 23.503019 80.562693 -10.596407 3.346902 6.267310 -4.603208 7.235370 5.375499 -6.738943 3.321295 -11.888227 37.956800 -9.419549 -32.047129 3.488014 -18.051236 44.480539 -13.601942 1.432758 -9.463704 -9.352293 7.278074 -17.385784 10.925457 0.743387 27.290850 -1.639015 -2.269008 -8.394912 -9.293592 -0.512968 1.300381 -4.720474 1.068171 -14.062331 -2.223762 0.756206 4.748136 13.382757 -9.137334 13.267877 15.073081 -4.656183 -0.690965 -86.450928 -24.490074 17.932137 168.464939 -75.099478 -169.983379 -16.894804 26.151402 -7.608582 0.000001 -0.000001 0.000002 -0.000000 0.000000 -0.000000 -0.000000 -0.000000 -0.000000 -16.895842 -0.270784 2.560035 81.138788 15.648624 17.209467 -102.518190 71.766636 -95.146018 14.116252 -10.644919 -2.655409 0.000000 0.000000 0.000000 0.000000 0.000000 -0.000000 0.000000 0.000000 0.000000 
25.564414 15.113964 17.143544 86.588337 -83.121256 -74.192455 -6.819015 -14.932099 -13.633827 4.889902 4.576486 -18.296794 9.745261 23.023030 81.438987 -9.182204 3.495023 5.530453 -4.487182 6.911875 5.375491 -6.909900 3.163270 -12.044097 37.698733 -8.849756 -30.864256 2.901805 -18.245033 45.136807 -18.799851 0.402523 -11.759827 -8.809797 4.343703 -19.390414 10.873833 0.422090 27.451591 -1.607500 -2.339936 -8.250590 -9.526085 -0.489960 1.883221 -4.569224 1.170059 -14.385172 -2.352560 0.753372 4.377147 13.396361 -9.357905 13.176447 15.233262 -3.780022 -0.486476 -86.563223 -24.692445 15.645848 171.269715 -76.340359 -174.231681 -15.205684 26.804804 -7.404566 0.000001 -0.000001 0.000002 -0.000000 -0.000000 -0.000000 0.000000 0.000000 -0.000000 -16.898641 -0.095724 2.478346 80.598491 17.895998 16.315728 -99.060536 73.111845 -88.066349 13.653287 -9.327379 -2.264384 -0.000000 -0.000000 0.000000 0.000000 -0.000000 -0.000000 -0.000000 -0.000000 0.000000 
25.365015 15.035135 17.232282 88.153406 -82.834365 -76.000657 -7.212387 -14.512313 -13.503007 5.550748 2.718375 -19.920557 9.692136 22.411917 81.984707 -8.280747 4.823331 4.735466 -3.221188 5.129410 3.499291 -6.259753 2.444531 -12.524002 36.730844 -8.121811 -28.884249 2.347706 -18.273913 45.789373 -30.676497 -1.437821 -13.097870 -5.237811 -0.614496 -16.259761 10.723973 0.104794 27.813029 -1.557986 -2.502749 -8.160808 -9.563335 -0.719253 2.360497 -4.526258 1.259077 -14.659961 -2.462473 0.787807 3.954002 12.984563 -9.222725 12.351541 15.116591 -2.707692 -0.275845 -86.527615 -24.778026 13.582484 173.605311 -77.580686 -177.222404 -13.465450 26.481244 -6.897211 0.000001 -0.000001 0.000002 0.000000 -0.000000 0.000000 0.000000 -0.000000 -0.000000 -16.897501 0.268994 2.303795 80.080614 20.188120 14.172277 -94.038419 75.789269 -80.031276 12.306618 -8.693204 -2.007340 0.000000 -0.000000 -0.000000 0.000000 0.000000 -0.000000 0.000000 -0.000000 -0.000000 
25.149700 14.920841 17.322222 88.783213 -82.935243 -77.091885 -7.000040 -13.613867 -13.491574 5.990751 0.157529 -21.128800 10.478833 22.272334 82.567439 -5.053298 4.881597 4.756682 -4.317256 10.505459 0.300684 -6.187050 1.904132 -12.373941 36.823562 -6.982754 -27.332118 1.416048 -18.885649 46.331426 -34.623038 -3.227652 -14.904336 -6.390083 -0.110163 -18.778836 10.832273 -0.233559 27.925475 -1.465514 -2.510078 -7.888892 -9.705125 -1.023107 2.795245 -4.272225 1.329466 -14.673661 -2.481619 0.765566 3.614161 12.728421 -9.255535 12.447503 15.490375 -1.724514 -0.107833 -86.733141 -24.542039 11.289559 177.427048 -78.825867 177.267681 -11.902037 27.716951 -6.856171 0.000001 -0.000001 0.000002 -0.000000 0.000000 0.000000 0.000000 0.000000 -0.000000 -16.992244 0.678917 2.156947 79.632507 22.281415 9.504225 -84.851062 80.933819 -70.307406 12.414358 -7.572262 -1.728609 -0.000000 -0.000000 0.000000 -0.000000 -0.000000 -0.000000 -0.000000 -0.000000 0.000000 
24.956456 14.854565 17.420871 91.793869 -82.633766 -80.166758 -7.375405 -13.721704 -13.546529 6.954984 -1.205116 -22.487876 9.241998 21.936252 82.378036 1.030691 5.509328 4.441401 -8.161542 14.413560 9.048848 -6.354727 2.026555 -12.602454 36.014529 -5.781282 -25.997236 1.958965 -19.194439 46.916879 -36.857539 -6.289963 -14.783471 -7.634810 0.023243 -21.934102 10.680430 -0.552778 28.134269 -1.445931 -2.647313 -7.785002 -10.060932 -1.130174 2.868507 -3.965397 1.410060 -14.572938 -2.463186 0.739544 3.280335 12.437758 -9.155034 12.293401 15.729839 -0.960355 0.018857 -86.943159 -24.015240 8.909598 -178.530560 -79.676538 172.205197 -10.682650 28.042441 -6.639035 0.000001 -0.000001 0.000002 -0.000000 0.000000 0.000000 -0.000000 -0.000000 0.000000 -16.793760 1.478536 2.291720 78.857026 24.230140 6.062311 -74.313641 84.327011 -62.990270 11.606284 -8.832790 -1.996486 -0.000000 0.000000 -0.000000 0.000000 0.000000 0.000000 -0.000000 0.000000 -0.000000 
24.767568 14.821772 17.493093 93.547110 -82.469574 -81.952808 -7.737466 -13.670880 -13.767015 7.885097 -2.647249 -23.697222 8.595292 21.532710 81.454723 -0.485016 7.038574 2.627487 -4.535765 12.367148 -1.711875 -6.345405 2.758473 -12.510875 34.489950 -3.973659 -25.121513 2.569584 -20.903170 47.220579 -31.829704 -8.427056 -14.451812 -11.964984 3.147344 -28.357335 10.509553 -0.855880 28.422975 -1.443959 -2.678795 -7.766550 -10.139795 -1.343834 2.792517 -3.831272 1.457865 -14.335869 -2.341504 0.729198 3.014395 11.875941 -9.008428 12.071195 15.644572 -0.429289 0.335994 -87.117264 -23.318412 6.402382 -174.425334 -79.972555 166.855761 -9.355079 28.728178 -6.475344 0.000001 -0.000001 0.000002 -0.000000 0.000000 0.000000 0.000000 0.000000 0.000000 -16.617968 2.344917 2.309293 78.108486 25.888488 4.560147 -61.207186 85.627479 -51.036799 10.954086 -7.552444 -1.644389 0.000000 -0.000000 0.000000 0.000000 0.000000 0.000000 0.000000 -0.000000 0.000000 
24.566967 14.768664 17.573574 95.405691 -82.289368 -84.012342 -7.929649 -13.600725 -13.767394 8.551063 -3.858165 -24.978165 7.442186 20.874617 80.540739 0.900056 8.573102 1.340276 -1.807069 10.181367 -7.414607 -6.316270 2.655414 -12.688817 34.476199 -4.437783 -24.584876 1.530752 -20.559182 48.718669 -32.322656 -9.473425 -13.444559 -13.211714 2.863876 -31.567056 10.364025 -1.111711 28.583337 -1.400235 -2.898322 -7.643794 -10.353890 -1.672030 2.659534 -3.546150 1.531840 -13.933717 -2.145847 0.705468 2.777896 11.767318 -8.851891 12.266129 15.850763 0.242797 0.552125 -87.446054 -22.256439 3.933023 -170.814654 -80.258408 162.631891 -7.673615 28.674702 -6.038236 0.000001 -0.000001 0.000002 -0.000000 -0.000000 -0.000000 0.000000 -0.000000 0.000000 -16.502948 3.324988 2.437364 77.411607 27.704461 4.711906 -49.898904 85.218573 -39.053449 10.305300 -4.958827 -1.000596 0.000000 0.000000 0.000000 0.000000 -0.000000 0.000000 0.000000 0.000000 0.000000 
